# xmcd CD database file
#
# Track frame offsets:
# 150
# 12934
# 40835
# 54872
# 70920
# 94335
# 107372
# 127000
# 142680
# 164217
#
# Disc length: 2570 seconds
# Revision: 6
# Processed by: cddbd v1.5.2PL0 Copyright (c) Steve Scherf et al.
# Submitted via: MusicBin 0.4
#
DISCID=810a080a
DTITLE=Old and In The Way - Old and In The Way
DYEAR=1973
DGENRE=Bluegrass
TTITLE0=Pig In A Pen
TTITLE1=Midnight Moonlight
TTITLE2=Old And In The Way
TTITLE3=Knockin' On Your Door
TTITLE4=The Hobo Song
TTITLE5=Panama Red
TTITLE6=Wild Horses
TTITLE7=Kissimmee Kid
TTITLE8=White Dove
TTITLE9=Land Of The Navajo
EXTD=Grateful Dead Records GDCD-4104\nRecorded October 8, 1973\n\n
EXTD=Victoria Babcock - Engineer\nVassar Clements - Fiddle, Violin
EXTD=\nJerry Garcia - Banjo, Guitar, Vocals\nJohn Golden - Enginee
EXTD=r, Mastering\nDavid Grisman - Banjo, Mandolin, Vocals, Produc
EXTD=er, Liner Notes, Editing, Mixing\nGreg Irons - Illustrations
EXTD=\nJohn Kahn - Bass, Bass (Acoustic]\nPeter Rowan - Guitar, Vo
EXTD=cals\nOwsley Stanley - Engineer, Editing, Mixing 
EXTT0=
EXTT1=
EXTT2=
EXTT3=
EXTT4=
EXTT5=
EXTT6=
EXTT7=
EXTT8=
EXTT9=
PLAYORDER=
